{"title":"Satyagraha 2013 Hindi Movies PDVDRip XVid with Sample ~ â˜»rDXâ˜»","uid":8872605,"size":741938190,"categoryP":"video","categoryS":"movies","magnet":"?xt=urn:btih:8eafa76677b41209341cc3c06d76386e968aa98d&amp;dn=Satyagraha+2013+Hindi+Movies+PDVDRip+XVid+with+Sample+%7E+%E2%98%BBrDX%E2%98%BB&amp;tr=udp%3A%2F%2Ftracker.openbittorrent.com%3A80&amp;tr=udp%3A%2F%2Fopen.demonii.com%3A1337&amp;tr=udp%3A%2F%2Ftracker.coppersurfer.tk%3A6969&amp;tr=udp%3A%2F%2Fexodus.desync.com%3A6969","seeders":0,"leechers":1,"uploader":"basicssom","files":3,"time":1378104092,"description":" &lt;a href=&quot;http://users2.jabry.com/myimghost/logo.jpg&quot; rel=&quot;nofollow&quot; target=&quot;_NEW&quot;&gt;http://users2.jabry.com/myimghost/logo.jpg&lt;/a&gt;\n\nSatyagraha 2013 Hindi Movies PDVDRip XVid with Sample ~ â˜»rDXâ˜»\n\nScreen Shots :\n &lt;a href=&quot;\nhttp://myimghosting.serveftp.com/13/Satyagrahapd.html&quot; rel=&quot;nofollow&quot; target=&quot;_NEW&quot;&gt;\nhttp://myimghosting.serveftp.com/13/Satyagrahapd.html&lt;/a&gt;\n &lt;a href=&quot;\nhttp://myimghost.cwahi.net/Satyagrahapd.html&quot; rel=&quot;nofollow&quot; target=&quot;_NEW&quot;&gt;\nhttp://myimghost.cwahi.net/Satyagrahapd.html&lt;/a&gt;\n\nAll rDX torrents are Seeding From the 1Gbps Seedbox 24X7\n &lt;a href=&quot;\nhttp://users2.jabry.com/myimghost/Satyagraha/Satyagraha.jpg&quot; rel=&quot;nofollow&quot; target=&quot;_NEW&quot;&gt;\nhttp://users2.jabry.com/myimghost/Satyagraha/Satyagraha.jpg&lt;/a&gt;\n &lt;a href=&quot;\nhttp://users2.jabry.com/myimghost/Satyagraha/Satyagraha1.jpg&quot; rel=&quot;nofollow&quot; target=&quot;_NEW&quot;&gt;\nhttp://users2.jabry.com/myimghost/Satyagraha/Satyagraha1.jpg&lt;/a&gt;\n &lt;a href=&quot;\nhttp://users2.jabry.com/myimghost/Satyagraha/Satyagraha2.jpg&quot; rel=&quot;nofollow&quot; target=&quot;_NEW&quot;&gt;\nhttp://users2.jabry.com/myimghost/Satyagraha/Satyagraha2.jpg&lt;/a&gt;\n\nFormat                                   : AVI\nFormat/Info                              : Audio Video Interleave\nFile size                                : 691 MiB\nDuration                                 : 2h 28mn\nOverall bit rate                         : 649 Kbps\nWriting library                          : MPlayer\n\nVideo\nID                                       : 0\nFormat                                   : MPEG-4 Visual\nFormat profile                           : Advanced Simple@L5\nFormat settings, BVOP                    : 1\nFormat settings, QPel                    : No\nFormat settings, GMC                     : No warppoints\nFormat settings, Matrix                  : Default (H.263)\nMuxing mode                              : Packed bitstream\nCodec ID                                 : XVID\nCodec ID/Hint                            : XviD\nDuration                                 : 2h 28mn\nBit rate                                 : 564 Kbps\nWidth                                    : 640 pixels\nHeight                                   : 272 pixels\nDisplay aspect ratio                     : 2.35:1\nFrame rate                               : 23.976 fps\nColor space                              : YUV\nChroma subsampling                       : 4:2:0\nBit depth                                : 8 bits\nScan type                                : Progressive\nCompression mode                         : Lossy\nBits/(Pixel*Frame)                       : 0.135\nStream size                              : 600 MiB (87%)\nWriting library                          : XviD 1.2.1 (UTC 2008-12-04)\n\nAudio\nID                                       : 1\nFormat                                   : MPEG Audio\nFormat version                           : Version 1\nFormat profile                           : Layer 3\nMode                                     : Joint stereo\nMode extension                           : MS Stereo\nCodec ID                                 : 55\nCodec ID/Hint                            : MP3\nDuration                                 : 2h 28mn\nBit rate mode                            : Constant\nBit rate                                 : 80.0 Kbps\nChannel(s)                               : 2 channels\nSampling rate                            : 32.0 KHz\nCompression mode                         : Lossy\nStream size                              : 85.2 MiB (12%)\nAlignment                                : Split accross interleaves\nInterleave, duration                     : 500 ms (11.99 video frames)\nInterleave, preload duration             : 500 ms\nWriting library                          : LAME3.99r\nEncoding settings                        : -m j -V 4 -q 2 -lowpass 13.5 -b 80","torrent":{"xt":"urn:btih:8eafa76677b41209341cc3c06d76386e968aa98d","amp;dn":"Satyagraha+2013+Hindi+Movies+PDVDRip+XVid+with+Sample+%7E+%E2%98%BBrDX%E2%98%BB","amp;tr":["udp%3A%2F%2Ftracker.openbittorrent.com%3A80","udp%3A%2F%2Fopen.demonii.com%3A1337","udp%3A%2F%2Ftracker.coppersurfer.tk%3A6969","udp%3A%2F%2Fexodus.desync.com%3A6969"],"infoHash":"8eafa76677b41209341cc3c06d76386e968aa98d","infoHashBuffer":{"type":"Buffer","data":[142,175,167,102,119,180,18,9,52,28,195,192,109,118,56,110,150,138,169,141]},"announce":[],"urlList":[]}}